<?xml version="1.0" encoding="utf-8"?>
<!-- Generator: Adobe Illustrator 18.1.1, SVG Export Plug-In . SVG Version: 6.00 Build 0)  -->
<svg version="1.1" id="Icon" xmlns:sketch="http://www.bohemiancoding.com/sketch/ns"
	 xmlns="http://www.w3.org/2000/svg" xmlns:xlink="http://www.w3.org/1999/xlink" x="0px" y="0px" viewBox="-371 937 48 48"
	 style="enable-background:new -371 937 48 48;" xml:space="preserve">
<style type="text/css">
	.st0{clip-path:url(#SVGID_2_);fill:#FF9800;}
	.st1{opacity:0.2;clip-path:url(#SVGID_2_);fill:#FFFFFF;}
	.st2{clip-path:url(#SVGID_2_);fill:url(#Paper_Long_Shadow_1_);}
	.st3{clip-path:url(#SVGID_2_);}
	.st4{fill:#F5F5F5;}
	.st5{fill:#FFB74D;}
	.st6{opacity:0.2;clip-path:url(#SVGID_2_);fill:#3E2723;}
</style>
<g id="Icon" xmlns:sketch="http://www.bohemiancoding.com/sketch/ns">
	<g>
		<g>
			<defs>
				<path id="SVGID_1_" d="M-330.6,948.5h-19c0-1.4-1.2-2.6-2.6-2.6h-11.2c-1.4,0-2.6,1.2-2.6,2.6v2.6v0.9v21.6
					c0,1.4,1.2,2.6,2.6,2.6h32.8c1.4,0,2.6-1.2,2.6-2.6v-22.5C-328,949.6-329.2,948.5-330.6,948.5z"/>
			</defs>
			<clipPath id="SVGID_2_">
				<use xlink:href="#SVGID_1_"  style="overflow:visible;"/>
			</clipPath>
			<path id="Base_7_" class="st0" d="M-330.6,948.5h-19c0-1.4-1.2-2.6-2.6-2.6h-11.2c-1.4,0-2.6,1.2-2.6,2.6v2.6v0.9v21.6
				c0,1.4,1.2,2.6,2.6,2.6h32.8c1.4,0,2.6-1.2,2.6-2.6v-22.5C-328,949.6-329.2,948.5-330.6,948.5z"/>
			<path id="Lower_Tint_7_" class="st1" d="M-330.6,948.5h-19c0-1.4-1.2-2.6-2.6-2.6h-11.2c-1.4,0-2.6,1.2-2.6,2.6v0.2
				c0-1.4,1.2-2.6,2.6-2.6h11.2c1.4,0,2.6,1.2,2.6,2.6h19c1.4,0,2.6,1.2,2.6,2.6v-0.2C-328,949.6-329.2,948.5-330.6,948.5z"/>
			
				<linearGradient id="Paper_Long_Shadow_1_" gradientUnits="userSpaceOnUse" x1="-360.6078" y1="946.7443" x2="-330.3781" y2="976.974">
				<stop  offset="0" style="stop-color:#BF360C;stop-opacity:0.2"/>
				<stop  offset="1" style="stop-color:#BF360C;stop-opacity:5.000000e-002"/>
			</linearGradient>
			<path id="Paper_Long_Shadow_7_" class="st2" d="M-330.3,949.9h-33.5v20.9l5.3,5.3h27.8c1.4,0,2.6-1.2,2.6-2.6v-21.4L-330.3,949.9
				z"/>
			<g id="Paper_8_" class="st3">
				
					<image style="overflow:visible;opacity:0.2;" width="58" height="46" xlink:href="1D54E5E8.png"  transform="matrix(1 0 0 1 -372 941)">
				</image>
				<g>
					<rect x="-363.8" y="949.9" class="st4" width="33.5" height="20.9"/>
				</g>
			</g>
			<g id="Top_8_" class="st3">
				
					<image style="overflow:visible;opacity:0.2;" width="63" height="49" xlink:href="1D54E5EF.png"  transform="matrix(1 0 0 1 -374 944)">
				</image>
				<g>
					<path class="st5" d="M-363.4,952.4h32.8c1.4,0,2.6,1.2,2.6,2.6l0,18.6c0,1.4-1.2,2.6-2.6,2.6h-32.8c-1.4,0-2.6-1.2-2.6-2.6V955
						C-366,953.5-364.8,952.4-363.4,952.4z"/>
				</g>
			</g>
			<path id="Top_Shade_7_" class="st6" d="M-328,973.3c0,1.4-1.2,2.6-2.6,2.6h-32.8c-1.4,0-2.6-1.2-2.6-2.6v0.2
				c0,1.4,1.2,2.6,2.6,2.6h32.8c1.4,0,2.6-1.2,2.6-2.6l0-18.6c0,0,0,0,0,0L-328,973.3z"/>
			<path id="Top_Tint_7_" class="st1" d="M-363.4,952.6h32.8c1.4,0,2.6,1.2,2.6,2.6V955c0-1.4-1.2-2.6-2.6-2.6h-32.8
				c-1.4,0-2.6,1.2-2.6,2.6v0.2C-366,953.7-364.8,952.6-363.4,952.6z"/>
		</g>
	</g>
	<g>
		<g>
			<defs>
				<path id="SVGID_3_" d="M-330.6,948.5h-19c0-1.4-1.2-2.6-2.6-2.6h-11.2c-1.4,0-2.6,1.2-2.6,2.6v2.6v0.9v21.6
					c0,1.4,1.2,2.6,2.6,2.6h32.8c1.4,0,2.6-1.2,2.6-2.6v-22.5C-328,949.6-329.2,948.5-330.6,948.5z"/>
			</defs>
			<clipPath id="SVGID_4_">
				<use xlink:href="#SVGID_3_"  style="overflow:visible;"/>
			</clipPath>
		</g>
	</g>
	<g>
		<g>
			<defs>
				<path id="SVGID_5_" d="M-330.6,948.5h-19c0-1.4-1.2-2.6-2.6-2.6h-11.2c-1.4,0-2.6,1.2-2.6,2.6v2.6v0.9v21.6
					c0,1.4,1.2,2.6,2.6,2.6h32.8c1.4,0,2.6-1.2,2.6-2.6v-22.5C-328,949.6-329.2,948.5-330.6,948.5z"/>
			</defs>
			<clipPath id="SVGID_6_">
				<use xlink:href="#SVGID_5_"  style="overflow:visible;"/>
			</clipPath>
		</g>
	</g>
</g>
</svg>
