<?xml version="1.0" encoding="UTF-8" standalone="no"?>
<!-- Created with Inkscape (http://www.inkscape.org/) -->

<svg
   xmlns:dc="http://purl.org/dc/elements/1.1/"
   xmlns:cc="http://creativecommons.org/ns#"
   xmlns:rdf="http://www.w3.org/1999/02/22-rdf-syntax-ns#"
   xmlns:svg="http://www.w3.org/2000/svg"
   xmlns="http://www.w3.org/2000/svg"
   xmlns:xlink="http://www.w3.org/1999/xlink"
   xmlns:sodipodi="http://sodipodi.sourceforge.net/DTD/sodipodi-0.dtd"
   xmlns:inkscape="http://www.inkscape.org/namespaces/inkscape"
   id="svg2"
   version="1.1"
   inkscape:version="0.91 r"
   xml:space="preserve"
   width="192"
   height="192"
   viewBox="0 0 192 192"
   sodipodi:docname="preferences-system.svg"
   style="enable-background:new"
   inkscape:export-filename="/home/german/Proyects/Linux-Icon-Pack/Materialos/48x48/categories/svg/preferences-system.png"
   inkscape:export-xdpi="90"
   inkscape:export-ydpi="90"><sodipodi:namedview
     pagecolor="#ffffff"
     bordercolor="#666666"
     borderopacity="1"
     objecttolerance="10"
     gridtolerance="10"
     guidetolerance="10"
     inkscape:pageopacity="0"
     inkscape:pageshadow="2"
     inkscape:window-width="1360"
     inkscape:window-height="709"
     id="namedview4"
     showgrid="false"
     inkscape:zoom="1.375"
     inkscape:cx="83.712844"
     inkscape:cy="47.472486"
     inkscape:window-x="0"
     inkscape:window-y="0"
     inkscape:window-maximized="1"
     inkscape:current-layer="layer4"
     borderlayer="true"
     inkscape:showpageshadow="true"
     showguides="false"
     inkscape:guide-bbox="true"><sodipodi:guide
       inkscape:color="rgb(0,0,255)"
       inkscape:label=""
       id="guide4338"
       orientation="1,0"
       position="8,96" /><sodipodi:guide
       inkscape:color="rgb(0,0,255)"
       inkscape:label=""
       id="guide4340"
       orientation="1,0"
       position="136,96" /><sodipodi:guide
       inkscape:color="rgb(0,0,255)"
       inkscape:label=""
       id="guide4342"
       orientation="0,1"
       position="96,8" /><sodipodi:guide
       inkscape:color="rgb(0,0,255)"
       inkscape:label=""
       id="guide4344"
       orientation="0,1"
       position="96,160" /><sodipodi:guide
       inkscape:color="rgb(0,0,255)"
       inkscape:label=""
       id="guide4346"
       orientation="-0.70710678,0.70710678"
       position="96,96" /><sodipodi:guide
       inkscape:color="rgb(0,0,255)"
       inkscape:label=""
       id="guide4348"
       orientation="0.70710678,0.70710678"
       position="96,96" /><sodipodi:guide
       inkscape:color="rgb(0,0,255)"
       inkscape:label=""
       id="guide4350"
       orientation="1,0"
       position="20,96" /><sodipodi:guide
       inkscape:color="rgb(0,0,255)"
       inkscape:label=""
       id="guide4352"
       orientation="1,0"
       position="32,96" /><sodipodi:guide
       inkscape:color="rgb(0,0,255)"
       inkscape:label=""
       id="guide4354"
       orientation="0,1"
       position="96,172" /><sodipodi:guide
       inkscape:color="rgb(0,0,255)"
       inkscape:label=""
       id="guide4356"
       orientation="0,1"
       position="96,96" /><sodipodi:guide
       inkscape:color="rgb(0,0,255)"
       inkscape:label=""
       id="guide4358"
       orientation="1,0"
       position="96,96" /><sodipodi:guide
       inkscape:color="rgb(0,0,255)"
       inkscape:label=""
       id="guide4360"
       orientation="0,1"
       position="96,20" /><sodipodi:guide
       inkscape:color="rgb(0,0,255)"
       inkscape:label=""
       id="guide4362"
       orientation="0,1"
       position="96,32" /><sodipodi:guide
       inkscape:color="rgb(0,0,255)"
       inkscape:label=""
       id="guide4364"
       orientation="0,1"
       position="96,184" /><sodipodi:guide
       inkscape:color="rgb(0,0,255)"
       inkscape:label=""
       id="guide4366"
       orientation="1,0"
       position="164.91168,56" /><sodipodi:guide
       inkscape:color="rgb(0,0,255)"
       inkscape:label=""
       id="guide4368"
       orientation="1,0"
       position="184,96" /><sodipodi:guide
       inkscape:color="rgb(0,0,255)"
       inkscape:label=""
       id="guide4370"
       orientation="0,1"
       position="96,136" /><sodipodi:guide
       inkscape:color="rgb(0,0,255)"
       inkscape:label=""
       id="guide4372"
       orientation="0,1"
       position="96,56" /><sodipodi:guide
       inkscape:color="rgb(0,0,255)"
       inkscape:label=""
       id="guide4374"
       orientation="1,0"
       position="56,96" /><sodipodi:guide
       inkscape:color="rgb(0,0,255)"
       inkscape:label=""
       id="guide4376"
       orientation="1,0"
       position="172,96" /></sodipodi:namedview><metadata
     id="metadata8"><rdf:RDF><cc:Work
         rdf:about=""><dc:format>image/svg+xml</dc:format><dc:type
           rdf:resource="http://purl.org/dc/dcmitype/StillImage" /><dc:title></dc:title></cc:Work></rdf:RDF></metadata><defs
     id="defs6"><linearGradient
       id="linearGradient4462"
       inkscape:collect="always"><stop
         id="stop4464"
         offset="0"
         style="stop-color:#ffffff;stop-opacity:0.1" /><stop
         id="stop4466"
         offset="1"
         style="stop-color:#ffffff;stop-opacity:0" /></linearGradient><clipPath
       id="clipPath18"
       clipPathUnits="userSpaceOnUse"><path
         inkscape:connector-curvature="0"
         id="path20"
         d="M 0,512 512,512 512,0 0,0 0,512 Z" /></clipPath><filter
       id="filter4616"
       inkscape:label="Drop Shadow"
       style="color-interpolation-filters:sRGB"><feFlood
         id="feFlood4618"
         result="flood"
         flood-color="rgb(0,0,0)"
         flood-opacity="0.2" /><feComposite
         id="feComposite4620"
         result="composite1"
         operator="in"
         in2="SourceGraphic"
         in="flood" /><feGaussianBlur
         id="feGaussianBlur4622"
         result="blur"
         stdDeviation="4"
         in="composite1" /><feOffset
         id="feOffset4624"
         result="offset"
         dy="4"
         dx="0" /><feComposite
         id="feComposite4626"
         result="composite2"
         operator="over"
         in2="offset"
         in="SourceGraphic" /></filter><filter
       height="2"
       width="2"
       y="-0.5"
       x="-0.5"
       id="filter4628"
       inkscape:label="Drop Shadow"
       style="color-interpolation-filters:sRGB"><feFlood
         id="feFlood4630"
         result="flood"
         flood-color="rgb(0,0,0)"
         flood-opacity="0.2" /><feComposite
         id="feComposite4632"
         result="composite1"
         operator="in"
         in2="SourceGraphic"
         in="flood" /><feGaussianBlur
         id="feGaussianBlur4634"
         result="blur"
         stdDeviation="4"
         in="composite1" /><feOffset
         id="feOffset4636"
         result="offset"
         dy="4"
         dx="0" /><feComposite
         id="feComposite4638"
         result="composite2"
         operator="over"
         in2="offset"
         in="SourceGraphic" /></filter><filter
       y="-0.5"
       x="-0.5"
       height="2"
       width="2"
       id="filter4640"
       inkscape:label="Drop Shadow"
       style="color-interpolation-filters:sRGB"><feFlood
         id="feFlood4642"
         result="flood"
         flood-color="rgb(0,0,0)"
         flood-opacity="0.2" /><feComposite
         id="feComposite4644"
         result="composite1"
         operator="in"
         in2="SourceGraphic"
         in="flood" /><feGaussianBlur
         id="feGaussianBlur4646"
         result="blur"
         stdDeviation="4"
         in="composite1" /><feOffset
         id="feOffset4648"
         result="offset"
         dy="4"
         dx="0" /><feComposite
         id="feComposite4650"
         result="composite2"
         operator="over"
         in2="offset"
         in="SourceGraphic" /></filter><filter
       id="filter4616-5"
       inkscape:label="Drop Shadow"
       style="color-interpolation-filters:sRGB"><feFlood
         id="feFlood4618-8"
         result="flood"
         flood-color="rgb(0,0,0)"
         flood-opacity="0.2" /><feComposite
         id="feComposite4620-5"
         result="composite1"
         operator="in"
         in2="SourceGraphic"
         in="flood" /><feGaussianBlur
         id="feGaussianBlur4622-9"
         result="blur"
         stdDeviation="4"
         in="composite1" /><feOffset
         id="feOffset4624-7"
         result="offset"
         dy="4"
         dx="0" /><feComposite
         id="feComposite4626-6"
         result="composite2"
         operator="over"
         in2="offset"
         in="SourceGraphic" /></filter><radialGradient
       spreadMethod="pad"
       gradientUnits="userSpaceOnUse"
       gradientTransform="matrix(1.557086,1.557086,-1.6007674,1.6007674,3.513787,-6.6859953)"
       r="102.71841"
       fy="2.7374444"
       fx="1.5579776"
       cy="2.7374444"
       cx="1.5579776"
       id="radialGradient4468"
       xlink:href="#linearGradient4462"
       inkscape:collect="always" /><filter
       height="2"
       width="2"
       y="-0.5"
       x="-0.5"
       id="filter4628-8"
       inkscape:label="Drop Shadow"
       style="color-interpolation-filters:sRGB"><feFlood
         id="feFlood4630-8"
         result="flood"
         flood-color="rgb(0,0,0)"
         flood-opacity="0.2" /><feComposite
         id="feComposite4632-8"
         result="composite1"
         operator="in"
         in2="SourceGraphic"
         in="flood" /><feGaussianBlur
         id="feGaussianBlur4634-3"
         result="blur"
         stdDeviation="4"
         in="composite1" /><feOffset
         id="feOffset4636-6"
         result="offset"
         dy="4"
         dx="0" /><feComposite
         id="feComposite4638-2"
         result="composite2"
         operator="over"
         in2="offset"
         in="SourceGraphic" /></filter><filter
       id="filter4616-6"
       inkscape:label="Drop Shadow"
       style="color-interpolation-filters:sRGB"><feFlood
         id="feFlood4618-5"
         result="flood"
         flood-color="rgb(0,0,0)"
         flood-opacity="0.2" /><feComposite
         id="feComposite4620-3"
         result="composite1"
         operator="in"
         in2="SourceGraphic"
         in="flood" /><feGaussianBlur
         id="feGaussianBlur4622-93"
         result="blur"
         stdDeviation="4"
         in="composite1" /><feOffset
         id="feOffset4624-9"
         result="offset"
         dy="4"
         dx="0" /><feComposite
         id="feComposite4626-3"
         result="composite2"
         operator="over"
         in2="offset"
         in="SourceGraphic" /></filter></defs><g
     inkscape:label="Bg"
     id="layer1"
     inkscape:groupmode="layer"><path
       style="opacity:1;fill:#546e7a;fill-opacity:1;filter:url(#filter4616);enable-background:new"
       id="path6"
       d="m 161.40116,104.62437 c 0.35201,-2.81598 0.616,-5.631972 0.616,-8.62396 0,-2.991987 -0.26399,-5.807975 -0.616,-8.623965 l 18.56791,-14.51994 c 1.67202,-1.319995 2.11201,-3.695985 1.05602,-5.631979 L 163.42515,36.776651 c -1.056,-1.935993 -3.43199,-2.639989 -5.36797,-1.935993 l -21.91191,8.799965 c -4.57598,-3.519985 -9.50396,-6.423974 -14.87195,-8.623966 l -3.34399,-23.319902 c -0.264,-2.1119913 -2.11198,-3.6959848 -4.31197,-3.6959848 l -35.199869,0 c -2.199991,0 -4.047983,1.5839935 -4.311982,3.6959848 l -3.343987,23.319902 c -5.367977,2.199992 -10.295958,5.191979 -14.871939,8.623966 L 33.977696,34.840658 c -2.023992,-0.791997 -4.311988,0 -5.367985,1.935993 L 11.009782,67.224526 c -1.1439947,1.935994 -0.615997,4.311984 1.055997,5.631979 l 18.56793,14.51994 c -0.352,2.81599 -0.615999,5.719978 -0.615999,8.623965 0,2.903989 0.263999,5.80798 0.615999,8.62396 l -18.56793,14.51996 c -1.671994,1.32 -2.1119917,3.69597 -1.055997,5.63197 l 17.599929,30.44787 c 1.055997,1.93599 3.43199,2.64 5.367985,1.93599 l 21.911887,-8.79996 c 4.575981,3.52 9.503962,6.42398 14.871939,8.62397 l 3.343987,23.3199 c 0.263999,2.112 2.111991,3.69599 4.311982,3.69599 l 35.199869,0 c 2.19999,0 4.04797,-1.58399 4.31197,-3.69599 l 3.34399,-23.3199 c 5.36799,-2.19999 10.29597,-5.19199 14.87195,-8.62397 l 21.91191,8.79996 c 2.02398,0.79201 4.31197,0 5.36797,-1.93599 l 17.59994,-30.44787 c 1.05599,-1.936 0.616,-4.31197 -1.05602,-5.63197 L 161.40116,104.62437 Z M 96.01742,126.8003 c -16.983931,0 -30.799874,-13.81595 -30.799874,-30.79989 0,-16.98393 13.815943,-30.799874 30.799874,-30.799874 16.98393,0 30.79989,13.815944 30.79989,30.799874 0,16.98394 -13.81596,30.79989 -30.79989,30.79989 z"
       inkscape:connector-curvature="0" /><path
       inkscape:connector-curvature="0"
       id="path6-8"
       d="m 78.417361,8.0007635 c -2.199989,0 -4.048484,1.5833122 -4.312483,3.6953015 l -3.343736,23.320207 c -5.367977,2.199989 -10.295053,5.192975 -14.871035,8.624958 l -21.91202,-8.800717 c -2.023991,-0.792036 -4.313122,-4.8e-4 -5.369119,1.93551 L 11.00943,67.225115 c -0.505057,0.854716 -0.667686,1.791951 -0.566405,2.689467 0.07032,-0.576277 0.247179,-1.149235 0.566405,-1.689472 L 28.608968,37.776019 c 1.055997,-1.935991 3.345128,-2.727507 5.369119,-1.935511 l 21.91202,8.800717 c 4.575982,-3.431983 9.503058,-6.424969 14.871035,-8.624958 l 3.343736,-23.320206 c 0.263999,-2.11199 2.112494,-3.6953025 4.312483,-3.6953025 l 35.199079,0 c 2.19999,0 4.04849,1.5833125 4.31248,3.6953025 l 3.34374,23.320206 c 5.36799,2.199989 10.297,5.104975 14.87298,8.624958 l 21.91202,-8.800717 c 1.93598,-0.703997 4.31117,-4.8e-4 5.36717,1.935511 l 17.59954,30.449091 c 0.29764,0.545717 0.46344,1.124915 0.5293,1.707032 0.0984,-0.902836 -0.06,-1.846671 -0.5293,-2.707027 L 163.42483,36.776023 c -1.056,-1.93599 -3.43119,-2.639507 -5.36717,-1.93551 l -21.91202,8.800717 c -4.57598,-3.519983 -9.50499,-6.424969 -14.87298,-8.624958 l -3.34374,-23.320207 c -0.26399,-2.1119893 -2.11249,-3.6953015 -4.31248,-3.6953015 l -35.199079,0 z M 30.528882,88.295372 c -0.295258,2.528188 -0.511717,5.114335 -0.511717,7.705043 0,0.166799 0.01,0.333198 0.01172,0.499997 0.02804,-2.736866 0.273691,-5.468813 0.605467,-8.12304 l -0.105468,-0.082 z m 130.977988,0 -0.10548,0.082 c 0.33212,2.656947 0.57786,5.318254 0.60547,8.12304 0.002,-0.167999 0.01,-0.331198 0.01,-0.499997 0,-2.667107 -0.21488,-5.193015 -0.50977,-7.705043 z m -96.276957,8.20504 c -0.0027,0.1672 -0.0116,0.332399 -0.0116,0.499998 0,16.98392 13.814773,30.80065 30.798707,30.80065 16.98393,0 30.80066,-13.81673 30.80066,-30.80065 0,-0.167599 -0.0108,-0.332798 -0.0136,-0.499998 -0.2692,16.753198 -13.97081,30.300658 -30.78699,30.300658 -16.816197,0 -30.51781,-13.54746 -30.786985,-30.300658 z m -34.701031,8.205038 -18.462816,14.43938 c -1.203321,0.94999 -1.757262,2.44734 -1.585931,3.93358 0.120927,-1.13248 0.654246,-2.19803 1.585931,-2.93359 l 18.568285,-14.52141 c -0.038,-0.304 -0.06976,-0.6122 -0.105468,-0.91796 z m 130.977988,0 c -0.036,0.306 -0.0672,0.6122 -0.10548,0.91796 l 18.56828,14.52141 c 0.929,0.73344 1.46094,1.79503 1.58399,2.92383 0.16776,-1.48308 -0.38324,-2.97587 -1.58399,-3.92382 l -18.46281,-14.43938 z"
       style="opacity:1;fill:#ffffff;fill-opacity:0.2;enable-background:new" /><path
       inkscape:connector-curvature="0"
       id="path6-3"
       d="m 96.0169,64.19973 c -16.983934,0 -30.798703,13.816732 -30.798703,30.80069 0,0.167599 0.0092,0.332798 0.0116,0.499997 0.269159,-16.753238 13.970788,-30.300652 30.786983,-30.300652 16.81619,0 30.51779,13.547454 30.78699,30.300652 0.003,-0.167199 0.0136,-0.332398 0.0136,-0.499997 0,-16.983958 -13.81673,-30.80069 -30.80066,-30.80069 z m -85.573875,4.714857 c -0.181667,1.488793 0.417611,2.989705 1.623041,3.941381 l 18.462816,14.439409 c 0.03572,-0.305598 0.06749,-0.614157 0.105468,-0.917995 L 12.066064,71.855972 c -0.933834,-0.737236 -1.494909,-1.805991 -1.62304,-2.941385 z m 171.110645,0.016 c -0.12304,1.128794 -0.65499,2.190429 -1.58399,2.923825 l -18.56828,14.52141 c 0.0384,0.305598 0.0695,0.611957 0.10548,0.917995 l 18.46281,-14.439409 c 1.20073,-0.947916 1.75174,-2.440749 1.58398,-3.923821 z M 30.028884,95.498857 c -0.0017,0.166799 -0.01172,0.333199 -0.01172,0.499998 0,2.590667 0.216459,5.176855 0.511717,7.705045 l 0.105468,-0.082 c -0.331775,-2.65423 -0.577421,-5.386177 -0.605466,-8.123044 z m 131.977986,0 c -0.0276,2.804747 -0.27336,5.466093 -0.60547,8.123003 l 0.10548,0.082 c 0.29487,-2.51203 0.50976,-5.037937 0.50976,-7.705044 0,-0.169199 -0.008,-0.331999 -0.01,-0.499998 z m 19.5468,26.568233 c -0.0658,0.58212 -0.23164,1.16132 -0.5293,1.70703 l -17.59954,30.4491 c -1.056,1.93599 -3.34319,2.72754 -5.36717,1.93555 l -21.91202,-8.80076 c -4.57598,3.43198 -9.50499,6.42497 -14.87298,8.62496 l -3.34374,23.32024 c -0.26399,2.11199 -2.11249,3.69526 -4.31248,3.69526 l -35.199079,0 c -2.199989,0 -4.048484,-1.58327 -4.312483,-3.69526 l -3.343736,-23.32024 c -5.367977,-2.19999 -10.295053,-5.10494 -14.871035,-8.62496 l -21.91202,8.80076 c -1.935994,0.70399 -4.313122,4.4e-4 -5.369119,-1.93555 L 11.00943,123.77412 c -0.296003,-0.54267 -0.462565,-1.11839 -0.529295,-1.69727 -0.09609,0.89988 0.06173,1.84007 0.529295,2.69727 l 17.599538,30.44909 c 1.055997,1.93599 3.433125,2.63955 5.369119,1.93555 l 21.91202,-8.80076 c 4.575982,3.52003 9.503058,6.42497 14.871035,8.62496 l 3.343736,23.32025 c 0.263999,2.11199 2.112494,3.6953 4.312483,3.6953 l 35.199079,0 c 2.19999,0 4.04849,-1.58331 4.31248,-3.6953 l 3.34374,-23.32025 c 5.36799,-2.19999 10.297,-5.19297 14.87298,-8.62496 l 21.91202,8.80076 c 2.02398,0.792 4.31117,4.4e-4 5.36717,-1.93555 l 17.59954,-30.44909 c 0.46926,-0.86032 0.6277,-1.80419 0.5293,-2.70703 z"
       style="opacity:1;fill:#263238;fill-opacity:0.2;enable-background:new" /></g><g
     style="display:inline"
     inkscape:label="Fg"
     id="layer2"
     inkscape:groupmode="layer"><path
       style="opacity:1;fill:#263238;fill-opacity:0.2;enable-background:new"
       d="m 96.000685,55.998996 c -10.608429,0 -20.781994,4.213825 -28.283448,11.714911 l -0.002,0 c -7.501193,7.501285 -11.714639,17.677027 -11.714895,28.285413 0,10.60842 4.213854,20.782 11.714943,28.28345 l 0,0.002 c 17.020179,16.95894 33.997775,33.93332 50.947705,50.90863 l 2.61135,-18.20915 c 5.36805,-2.20002 10.29713,-5.19303 14.87317,-8.62505 l 21.91229,8.80085 c 2.02401,0.792 4.31123,4.4e-4 5.36724,-1.93557 l 17.59976,-30.44947 c 0.014,-0.024 0.02,-0.0524 0.0332,-0.078 C 160.91184,104.51453 141.07152,84.563089 124.28608,67.714027 116.78457,60.212541 106.60943,55.999116 96.000685,55.999116 Z m 0.0176,9.199295 c 16.984135,0 30.801045,13.816884 30.801045,30.801029 0,16.98414 -13.81691,30.80102 -30.801045,30.80102 -16.984155,0 -30.799095,-13.81688 -30.799095,-30.80102 0,-16.984145 13.81494,-30.801029 30.799091,-30.801029 z"
       id="path6-0"
       inkscape:connector-curvature="0" /><circle
       r="40.000343"
       cy="95.999313"
       cx="96.000687"
       id="path4375"
       style="opacity:1;fill:#4dd0e1;fill-opacity:1;fill-rule:evenodd;stroke:none;stroke-width:0.1;stroke-linecap:butt;stroke-linejoin:miter;stroke-miterlimit:4;stroke-dasharray:none;stroke-dashoffset:0;stroke-opacity:1;filter:url(#filter4628);enable-background:new" /><circle
       r="30.800262"
       cy="95.992317"
       cx="96.020683"
       id="path4373"
       style="opacity:1;fill:#03a9f4;fill-opacity:1;fill-rule:evenodd;stroke:none;stroke-width:0.1;stroke-linecap:butt;stroke-linejoin:miter;stroke-miterlimit:4;stroke-dasharray:none;stroke-dashoffset:0;stroke-opacity:1;filter:url(#filter4640);enable-background:new" /><path
       inkscape:connector-curvature="0"
       id="path4375-1"
       d="M 96.000685,55.998996 A 40.000342,40.000342 0 0 0 56.000342,95.99932 40.000342,40.000342 0 0 0 56.021942,96.58528 40.000342,40.000342 0 0 1 96.000801,56.999002 40.000342,40.000342 0 0 1 135.97966,96.4134 40.000342,40.000342 0 0 0 136.00126,95.99932 40.000342,40.000342 0 0 0 96.000921,55.998996 Z"
       style="opacity:1;fill:#ffffff;fill-opacity:0.2;fill-rule:evenodd;stroke:none;stroke-width:0.1;stroke-linecap:butt;stroke-linejoin:miter;stroke-miterlimit:4;stroke-dasharray:none;stroke-dashoffset:0;stroke-opacity:1;enable-background:new" /><path
       inkscape:connector-curvature="0"
       id="path4373-7"
       d="m 96.020213,65.192411 a 30.800262,30.800262 0 0 0 -30.799091,30.799109 30.800262,30.800262 0 0 0 0.0196,0.58592 30.800262,30.800262 0 0 1 30.779559,-30.385023 30.800262,30.800262 0 0 1 30.779559,30.215103 30.800262,30.800262 0 0 0 0.0216,-0.416 30.800262,30.800262 0 0 0 -30.801039,-30.799109 z"
       style="opacity:1;fill:#ffffff;fill-opacity:0.2;fill-rule:evenodd;stroke:none;stroke-width:0.1;stroke-linecap:butt;stroke-linejoin:miter;stroke-miterlimit:4;stroke-dasharray:none;stroke-dashoffset:0;stroke-opacity:1;enable-background:new" /><path
       inkscape:connector-curvature="0"
       id="path4375-4"
       d="m 135.97955,95.41339 a 40.000342,40.000342 0 0 1 -39.978865,39.58624 40.000342,40.000342 0 0 1 -39.978859,-39.41439 40.000342,40.000342 0 0 0 -0.0216,0.41408 40.000342,40.000342 0 0 0 40.000343,40.00036 40.000342,40.000342 0 0 0 40.000341,-40.00036 40.000342,40.000342 0 0 0 -0.0216,-0.58593 z"
       style="opacity:1;fill:#263238;fill-opacity:0.2;fill-rule:evenodd;stroke:none;stroke-width:0.1;stroke-linecap:butt;stroke-linejoin:miter;stroke-miterlimit:4;stroke-dasharray:none;stroke-dashoffset:0;stroke-opacity:1;enable-background:new" /><path
       inkscape:connector-curvature="0"
       id="path4373-9"
       d="m 126.79978,95.40751 a 30.800262,30.800262 0 0 1 -30.779567,30.38503 30.800262,30.800262 0 0 1 -30.779559,-30.2151 30.800262,30.800262 0 0 0 -0.0196,0.41408 30.800262,30.800262 0 0 0 30.799091,30.80102 30.800262,30.800262 0 0 0 30.801035,-30.80102 30.800262,30.800262 0 0 0 -0.0216,-0.58401 z"
       style="opacity:1;fill:#263238;fill-opacity:0.2;fill-rule:evenodd;stroke:none;stroke-width:0.1;stroke-linecap:butt;stroke-linejoin:miter;stroke-miterlimit:4;stroke-dasharray:none;stroke-dashoffset:0;stroke-opacity:1;enable-background:new" /></g><g
     style="display:inline"
     inkscape:label="Finish"
     id="layer4"
     inkscape:groupmode="layer"><path
       sodipodi:nodetypes="csccccccccssccccccccsccccccccsscccccccc"
       style="opacity:1;fill:url(#radialGradient4468);fill-opacity:1;filter:url(#filter4616-5);enable-background:new"
       id="path6-80"
       d="m 161.40116,104.62437 c 0.35201,-2.81598 0.616,-5.631967 0.616,-8.623955 0,-2.991988 -0.26399,-5.80798 -0.616,-8.62397 l 18.56791,-14.519941 c 1.67202,-1.319994 2.11201,-3.695985 1.05602,-5.631978 L 163.42515,36.776651 c -1.056,-1.935993 -3.43199,-2.639989 -5.36797,-1.935993 l -21.91191,8.799964 c -4.57598,-3.519985 -9.50396,-6.423973 -14.87195,-8.623965 l -3.34399,-23.319902 c -0.264,-2.1119913 -2.11198,-3.6959848 -4.31197,-3.6959848 l -35.199869,0 c -2.199991,0 -4.047983,1.5839935 -4.311982,3.6959848 l -3.343987,23.319902 c -5.367977,2.199992 -10.295958,5.191979 -14.871939,8.623965 L 33.977696,34.840658 c -2.023992,-0.791997 -4.311988,0 -5.367985,1.935993 L 11.009782,67.224526 c -1.1439947,1.935993 -0.615997,4.311984 1.055997,5.631978 l 18.56793,14.519941 c -0.352,2.81599 -0.615999,5.719982 -0.615999,8.62397 0,2.903988 0.263999,5.807975 0.615999,8.623955 l -18.56793,14.51996 c -1.671994,1.32 -2.1119917,3.69597 -1.055997,5.63197 l 17.599929,30.44787 c 1.055997,1.93599 3.43199,2.64 5.367985,1.93599 l 21.911887,-8.79996 c 4.575981,3.52 9.503962,6.42398 14.871939,8.62397 l 3.343987,23.3199 c 0.263999,2.112 2.111991,3.69599 4.311982,3.69599 l 35.199869,0 c 2.19999,0 4.04797,-1.58399 4.31197,-3.69599 l 3.34399,-23.3199 c 5.36799,-2.19999 10.29597,-5.19199 14.87195,-8.62397 l 21.91191,8.79996 c 2.02398,0.79201 4.31197,0 5.36797,-1.93599 l 17.59994,-30.44787 c 1.05599,-1.936 0.616,-4.31197 -1.05602,-5.63197 z"
       inkscape:connector-curvature="0" /></g></svg>