<?xml version="1.0" encoding="UTF-8" standalone="no"?>
<!-- Generator: Adobe Illustrator 18.1.1, SVG Export Plug-In . SVG Version: 6.00 Build 0)  -->

<svg
   xmlns:dc="http://purl.org/dc/elements/1.1/"
   xmlns:cc="http://creativecommons.org/ns#"
   xmlns:rdf="http://www.w3.org/1999/02/22-rdf-syntax-ns#"
   xmlns:svg="http://www.w3.org/2000/svg"
   xmlns="http://www.w3.org/2000/svg"
   xmlns:xlink="http://www.w3.org/1999/xlink"
   xmlns:sodipodi="http://sodipodi.sourceforge.net/DTD/sodipodi-0.dtd"
   xmlns:inkscape="http://www.inkscape.org/namespaces/inkscape"
   version="1.1"
   id="Icon"
   x="0px"
   y="0px"
   viewBox="-371 937 48 48"
   style="enable-background:new -371 937 48 48;"
   xml:space="preserve"
   inkscape:version="0.91 r"
   sodipodi:docname="nautilus.svg"><metadata
     id="metadata65"><rdf:RDF><cc:Work
         rdf:about=""><dc:format>image/svg+xml</dc:format><dc:type
           rdf:resource="http://purl.org/dc/dcmitype/StillImage" /><dc:title /></cc:Work></rdf:RDF></metadata><defs
     id="defs63" /><sodipodi:namedview
     pagecolor="#ffffff"
     bordercolor="#666666"
     borderopacity="1"
     objecttolerance="10"
     gridtolerance="10"
     guidetolerance="10"
     inkscape:pageopacity="0"
     inkscape:pageshadow="2"
     inkscape:window-width="1553"
     inkscape:window-height="876"
     id="namedview61"
     showgrid="false"
     inkscape:zoom="4.9166667"
     inkscape:cx="-10.677966"
     inkscape:cy="23.593221"
     inkscape:window-x="47"
     inkscape:window-y="24"
     inkscape:window-maximized="1"
     inkscape:current-layer="Icon" /><style
     type="text/css"
     id="style3">
	.st0{clip-path:url(#SVGID_2_);fill:#FF9800;}
	.st1{opacity:0.2;clip-path:url(#SVGID_2_);fill:#FFFFFF;}
	.st2{clip-path:url(#SVGID_2_);fill:url(#Paper_Long_Shadow_1_);}
	.st3{clip-path:url(#SVGID_2_);}
	.st4{fill:#F5F5F5;}
	.st5{fill:#FFB74D;}
	.st6{opacity:0.2;clip-path:url(#SVGID_2_);fill:#3E2723;}
</style><g
     id="g5"
     transform="matrix(1.1710526,0,0,1.1710526,59.355252,-164.4401)"><g
       id="g7"><g
         id="g9"><defs
           id="defs11"><path
             id="SVGID_1_"
             d="m -330.6,948.5 -19,0 c 0,-1.4 -1.2,-2.6 -2.6,-2.6 l -11.2,0 c -1.4,0 -2.6,1.2 -2.6,2.6 l 0,2.6 0,0.9 0,21.6 c 0,1.4 1.2,2.6 2.6,2.6 l 32.8,0 c 1.4,0 2.6,-1.2 2.6,-2.6 l 0,-22.5 c 0,-1.5 -1.2,-2.6 -2.6,-2.6 z"
             inkscape:connector-curvature="0" /></defs><clipPath
           id="SVGID_2_"><use
             xlink:href="#SVGID_1_"
             style="overflow:visible"
             id="use15"
             x="0"
             y="0"
             width="100%"
             height="100%" /></clipPath><path
           id="Base_7_"
           class="st0"
           d="m -330.6,948.5 -19,0 c 0,-1.4 -1.2,-2.6 -2.6,-2.6 l -11.2,0 c -1.4,0 -2.6,1.2 -2.6,2.6 l 0,2.6 0,0.9 0,21.6 c 0,1.4 1.2,2.6 2.6,2.6 l 32.8,0 c 1.4,0 2.6,-1.2 2.6,-2.6 l 0,-22.5 c 0,-1.5 -1.2,-2.6 -2.6,-2.6 z"
           clip-path="url(#SVGID_2_)"
           inkscape:connector-curvature="0"
           style="fill:#ff9800" /><path
           id="Lower_Tint_7_"
           class="st1"
           d="m -330.6,948.5 -19,0 c 0,-1.4 -1.2,-2.6 -2.6,-2.6 l -11.2,0 c -1.4,0 -2.6,1.2 -2.6,2.6 l 0,0.2 c 0,-1.4 1.2,-2.6 2.6,-2.6 l 11.2,0 c 1.4,0 2.6,1.2 2.6,2.6 l 19,0 c 1.4,0 2.6,1.2 2.6,2.6 l 0,-0.2 c 0,-1.5 -1.2,-2.6 -2.6,-2.6 z"
           clip-path="url(#SVGID_2_)"
           inkscape:connector-curvature="0"
           style="opacity:0.2;fill:#ffffff" /><linearGradient
           id="Paper_Long_Shadow_1_"
           gradientUnits="userSpaceOnUse"
           x1="-360.60779"
           y1="946.74432"
           x2="-330.37811"
           y2="976.974"><stop
             offset="0"
             style="stop-color:#BF360C;stop-opacity:0.2"
             id="stop20" /><stop
             offset="1"
             style="stop-color:#BF360C;stop-opacity:5.000000e-002"
             id="stop22" /></linearGradient><path
           id="Paper_Long_Shadow_7_"
           class="st2"
           d="m -330.3,949.9 -33.5,0 0,20.9 5.3,5.3 27.8,0 c 1.4,0 2.6,-1.2 2.6,-2.6 l 0,-21.4 -2.2,-2.2 z"
           clip-path="url(#SVGID_2_)"
           style="fill:url(#Paper_Long_Shadow_1_)"
           inkscape:connector-curvature="0" /><g
           id="Paper_8_"
           class="st3"
           clip-path="url(#SVGID_2_)"><image
             sodipodi:absref="/home/dominic/Documents/Git/Linux-Icon-Pack/MaterialOS/48x48/apps/1D54E5E8.png"
             xlink:href="1D54E5E8.png"
             style="overflow:visible;opacity:0.2"
             width="58"
             height="46"
             transform="translate(-372,941)"
             id="image26" /><g
             id="g28"><rect
               x="-363.79999"
               y="949.90002"
               class="st4"
               width="33.5"
               height="20.9"
               id="rect30"
               style="fill:#f5f5f5" /></g></g><g
           id="Top_8_"
           class="st3"
           clip-path="url(#SVGID_2_)"><image
             sodipodi:absref="/home/dominic/Documents/Git/Linux-Icon-Pack/MaterialOS/48x48/apps/1D54E5EF.png"
             xlink:href="1D54E5EF.png"
             style="overflow:visible;opacity:0.2"
             width="63"
             height="49"
             transform="translate(-374,944)"
             id="image33" /><g
             id="g35"><path
               class="st5"
               d="m -363.4,952.4 32.8,0 c 1.4,0 2.6,1.2 2.6,2.6 l 0,18.6 c 0,1.4 -1.2,2.6 -2.6,2.6 l -32.8,0 c -1.4,0 -2.6,-1.2 -2.6,-2.6 l 0,-18.6 c 0,-1.5 1.2,-2.6 2.6,-2.6 z"
               id="path37"
               inkscape:connector-curvature="0"
               style="fill:#ffb74d" /></g></g><path
           id="Top_Shade_7_"
           class="st6"
           d="m -328,973.3 c 0,1.4 -1.2,2.6 -2.6,2.6 l -32.8,0 c -1.4,0 -2.6,-1.2 -2.6,-2.6 l 0,0.2 c 0,1.4 1.2,2.6 2.6,2.6 l 32.8,0 c 1.4,0 2.6,-1.2 2.6,-2.6 l 0,-18.6 c 0,0 0,0 0,0 l 0,18.4 z"
           clip-path="url(#SVGID_2_)"
           inkscape:connector-curvature="0"
           style="opacity:0.2;fill:#3e2723" /><path
           id="Top_Tint_7_"
           class="st1"
           d="m -363.4,952.6 32.8,0 c 1.4,0 2.6,1.2 2.6,2.6 l 0,-0.2 c 0,-1.4 -1.2,-2.6 -2.6,-2.6 l -32.8,0 c -1.4,0 -2.6,1.2 -2.6,2.6 l 0,0.2 c 0,-1.5 1.2,-2.6 2.6,-2.6 z"
           clip-path="url(#SVGID_2_)"
           inkscape:connector-curvature="0"
           style="opacity:0.2;fill:#ffffff" /></g></g><g
       id="g41"><g
         id="g43"><defs
           id="defs45"><path
             id="SVGID_3_"
             d="m -330.6,948.5 -19,0 c 0,-1.4 -1.2,-2.6 -2.6,-2.6 l -11.2,0 c -1.4,0 -2.6,1.2 -2.6,2.6 l 0,2.6 0,0.9 0,21.6 c 0,1.4 1.2,2.6 2.6,2.6 l 32.8,0 c 1.4,0 2.6,-1.2 2.6,-2.6 l 0,-22.5 c 0,-1.5 -1.2,-2.6 -2.6,-2.6 z"
             inkscape:connector-curvature="0" /></defs><clipPath
           id="SVGID_4_"><use
             xlink:href="#SVGID_3_"
             style="overflow:visible"
             id="use49"
             x="0"
             y="0"
             width="100%"
             height="100%" /></clipPath></g></g><g
       id="g51"><g
         id="g53"><defs
           id="defs55"><path
             id="SVGID_5_"
             d="m -330.6,948.5 -19,0 c 0,-1.4 -1.2,-2.6 -2.6,-2.6 l -11.2,0 c -1.4,0 -2.6,1.2 -2.6,2.6 l 0,2.6 0,0.9 0,21.6 c 0,1.4 1.2,2.6 2.6,2.6 l 32.8,0 c 1.4,0 2.6,-1.2 2.6,-2.6 l 0,-22.5 c 0,-1.5 -1.2,-2.6 -2.6,-2.6 z"
             inkscape:connector-curvature="0" /></defs><clipPath
           id="SVGID_6_"><use
             xlink:href="#SVGID_5_"
             style="overflow:visible"
             id="use59"
             x="0"
             y="0"
             width="100%"
             height="100%" /></clipPath></g></g></g></svg>