<?xml version="1.0" encoding="UTF-8" standalone="no"?>
<!-- Created with Inkscape (http://www.inkscape.org/) -->

<svg
   xmlns:dc="http://purl.org/dc/elements/1.1/"
   xmlns:cc="http://creativecommons.org/ns#"
   xmlns:rdf="http://www.w3.org/1999/02/22-rdf-syntax-ns#"
   xmlns:svg="http://www.w3.org/2000/svg"
   xmlns="http://www.w3.org/2000/svg"
   xmlns:xlink="http://www.w3.org/1999/xlink"
   xmlns:sodipodi="http://sodipodi.sourceforge.net/DTD/sodipodi-0.dtd"
   xmlns:inkscape="http://www.inkscape.org/namespaces/inkscape"
   id="svg2"
   version="1.1"
   inkscape:version="0.91 r"
   xml:space="preserve"
   width="48"
   height="48"
   viewBox="0 0 48 48"
   sodipodi:docname="gedit.svg"
   style="enable-background:new"><metadata
     id="metadata8"><rdf:RDF><cc:Work
         rdf:about=""><dc:format>image/svg+xml</dc:format><dc:type
           rdf:resource="http://purl.org/dc/dcmitype/StillImage" /><dc:title></dc:title></cc:Work></rdf:RDF></metadata><defs
     id="defs6"><linearGradient
       inkscape:collect="always"
       id="linearGradient18527"><stop
         style="stop-color:#ffffff;stop-opacity:0.09803922"
         offset="0"
         id="stop18529" /><stop
         id="stop18535"
         offset="0.33000001"
         style="stop-color:#ffffff;stop-opacity:0" /><stop
         style="stop-color:#ffffff;stop-opacity:0"
         offset="1"
         id="stop18531" /></linearGradient><clipPath
       clipPathUnits="userSpaceOnUse"
       id="clipPath18"><path
         d="M 0,512 512,512 512,0 0,0 0,512 Z"
         id="path20"
         inkscape:connector-curvature="0" /></clipPath><filter
       style="color-interpolation-filters:sRGB"
       inkscape:label="Drop Shadow"
       id="filter18030"><feFlood
         flood-opacity="0.2"
         flood-color="rgb(0,0,0)"
         result="flood"
         id="feFlood18032" /><feComposite
         in="flood"
         in2="SourceGraphic"
         operator="in"
         result="composite1"
         id="feComposite18034" /><feGaussianBlur
         stdDeviation="1"
         result="blur"
         id="feGaussianBlur18036" /><feOffset
         dx="0"
         dy="1"
         result="offset"
         id="feOffset18038" /><feComposite
         in="SourceGraphic"
         in2="offset"
         operator="over"
         result="composite2"
         id="feComposite18040" /></filter><filter
       style="color-interpolation-filters:sRGB"
       inkscape:label="Drop Shadow"
       id="filter18116"><feFlood
         flood-opacity="0.2"
         flood-color="rgb(33,33,33)"
         result="flood"
         id="feFlood18118" /><feComposite
         in="flood"
         operator="in"
         result="composite1"
         id="feComposite18120" /><feGaussianBlur
         stdDeviation="1.5"
         result="blur"
         id="feGaussianBlur18122" /><feOffset
         dx="0"
         dy="1.5"
         result="offset"
         id="feOffset18124" /><feComposite
         in="SourceGraphic"
         in2="offset"
         operator="over"
         result="composite2"
         id="feComposite18126" /></filter><filter
       style="color-interpolation-filters:sRGB"
       inkscape:label="Drop Shadow"
       id="filter18391"><feFlood
         flood-opacity="0.2"
         flood-color="rgb(62,39,35)"
         result="flood"
         id="feFlood18393" /><feComposite
         in="flood"
         in2="SourceGraphic"
         operator="in"
         result="composite1"
         id="feComposite18395" /><feGaussianBlur
         in="composite1"
         stdDeviation="1.5"
         result="blur"
         id="feGaussianBlur18397" /><feOffset
         dx="0"
         dy="1.5"
         result="offset"
         id="feOffset18399" /><feComposite
         in="SourceGraphic"
         in2="offset"
         operator="over"
         result="composite2"
         id="feComposite18401" /></filter><filter
       style="color-interpolation-filters:sRGB"
       inkscape:label="Drop Shadow"
       id="filter18116-9"><feFlood
         flood-opacity="0.2"
         flood-color="rgb(0,0,0)"
         result="flood"
         id="feFlood18118-2" /><feComposite
         in="flood"
         in2="SourceGraphic"
         operator="in"
         result="composite1"
         id="feComposite18120-3" /><feGaussianBlur
         in="composite1"
         stdDeviation="6"
         result="blur"
         id="feGaussianBlur18122-5" /><feOffset
         dx="0"
         dy="6"
         result="offset"
         id="feOffset18124-4" /><feComposite
         in="SourceGraphic"
         in2="offset"
         operator="over"
         result="composite2"
         id="feComposite18126-3" /></filter><filter
       style="color-interpolation-filters:sRGB"
       inkscape:label="Drop Shadow"
       id="filter18116-9-8"><feFlood
         flood-opacity="0.2"
         flood-color="rgb(0,0,0)"
         result="flood"
         id="feFlood18118-2-3" /><feComposite
         in="flood"
         in2="SourceGraphic"
         operator="in"
         result="composite1"
         id="feComposite18120-3-3" /><feGaussianBlur
         in="composite1"
         stdDeviation="1.5"
         result="blur"
         id="feGaussianBlur18122-5-9" /><feOffset
         dx="0"
         dy="1.5"
         result="offset"
         id="feOffset18124-4-7" /><feComposite
         in="SourceGraphic"
         in2="offset"
         operator="over"
         result="composite2"
         id="feComposite18126-3-3" /></filter><radialGradient
       inkscape:collect="always"
       xlink:href="#linearGradient18527"
       id="radialGradient18533"
       cx="4.5246425"
       cy="0.72077966"
       fx="4.5246425"
       fy="0.72077966"
       r="91.247307"
       gradientTransform="matrix(1.8507248,1.8507248,-1.8497654,1.8497654,-0.48776107,-3.2071339)"
       gradientUnits="userSpaceOnUse" /></defs><sodipodi:namedview
     pagecolor="#ffffff"
     bordercolor="#666666"
     borderopacity="1"
     objecttolerance="10"
     gridtolerance="10"
     guidetolerance="10"
     inkscape:pageopacity="0"
     inkscape:pageshadow="2"
     inkscape:window-width="1360"
     inkscape:window-height="709"
     id="namedview4"
     showgrid="false"
     inkscape:zoom="4"
     inkscape:cx="2.4650255"
     inkscape:cy="22.495806"
     inkscape:window-x="0"
     inkscape:window-y="0"
     inkscape:window-maximized="1"
     inkscape:current-layer="layer1"
     borderlayer="true"
     inkscape:showpageshadow="true"
     showguides="false"
     inkscape:guide-bbox="true"><sodipodi:guide
       position="8,96"
       orientation="1,0"
       id="guide4338"
       inkscape:label=""
       inkscape:color="rgb(0,0,255)" /><sodipodi:guide
       position="136,96"
       orientation="1,0"
       id="guide4340"
       inkscape:label=""
       inkscape:color="rgb(0,0,255)" /><sodipodi:guide
       position="96,8"
       orientation="0,1"
       id="guide4342"
       inkscape:label=""
       inkscape:color="rgb(0,0,255)" /><sodipodi:guide
       position="96,160"
       orientation="0,1"
       id="guide4344"
       inkscape:label=""
       inkscape:color="rgb(0,0,255)" /><sodipodi:guide
       position="96,96"
       orientation="-0.70710678,0.70710678"
       id="guide4346"
       inkscape:label=""
       inkscape:color="rgb(0,0,255)" /><sodipodi:guide
       position="96,96"
       orientation="0.70710678,0.70710678"
       id="guide4348"
       inkscape:label=""
       inkscape:color="rgb(0,0,255)" /><sodipodi:guide
       position="20,96"
       orientation="1,0"
       id="guide4350"
       inkscape:label=""
       inkscape:color="rgb(0,0,255)" /><sodipodi:guide
       position="32,96"
       orientation="1,0"
       id="guide4352"
       inkscape:label=""
       inkscape:color="rgb(0,0,255)" /><sodipodi:guide
       position="96,172"
       orientation="0,1"
       id="guide4354"
       inkscape:label=""
       inkscape:color="rgb(0,0,255)" /><sodipodi:guide
       position="96,96"
       orientation="0,1"
       id="guide4356"
       inkscape:label=""
       inkscape:color="rgb(0,0,255)" /><sodipodi:guide
       position="96,96"
       orientation="1,0"
       id="guide4358"
       inkscape:label=""
       inkscape:color="rgb(0,0,255)" /><sodipodi:guide
       position="96,20"
       orientation="0,1"
       id="guide4360"
       inkscape:label=""
       inkscape:color="rgb(0,0,255)" /><sodipodi:guide
       position="96,32"
       orientation="0,1"
       id="guide4362"
       inkscape:label=""
       inkscape:color="rgb(0,0,255)" /><sodipodi:guide
       position="96,184"
       orientation="0,1"
       id="guide4364"
       inkscape:label=""
       inkscape:color="rgb(0,0,255)" /><sodipodi:guide
       position="160,96"
       orientation="1,0"
       id="guide4366"
       inkscape:label=""
       inkscape:color="rgb(0,0,255)" /><sodipodi:guide
       position="184,96"
       orientation="1,0"
       id="guide4368"
       inkscape:label=""
       inkscape:color="rgb(0,0,255)" /><sodipodi:guide
       position="96,136"
       orientation="0,1"
       id="guide4370"
       inkscape:label=""
       inkscape:color="rgb(0,0,255)" /><sodipodi:guide
       position="96,56"
       orientation="0,1"
       id="guide4372"
       inkscape:label=""
       inkscape:color="rgb(0,0,255)" /><sodipodi:guide
       position="56,96"
       orientation="1,0"
       id="guide4374"
       inkscape:label=""
       inkscape:color="rgb(0,0,255)" /><sodipodi:guide
       position="172,96"
       orientation="1,0"
       id="guide4376"
       inkscape:label=""
       inkscape:color="rgb(0,0,255)" /></sodipodi:namedview><g
     inkscape:groupmode="layer"
     id="layer1"
     inkscape:label="Bg"
     transform="translate(0,-144)"><rect
       style="display:inline;opacity:1;fill:#eeeeee;fill-opacity:1;fill-rule:evenodd;stroke:none;stroke-width:0.1;stroke-linecap:butt;stroke-linejoin:miter;stroke-miterlimit:4;stroke-dasharray:none;stroke-dashoffset:0;stroke-opacity:1;filter:url(#filter18030);enable-background:new"
       id="rect4929"
       width="128"
       height="164"
       x="32"
       y="20.00001"
       ry="12"
       rx="12"
       transform="matrix(0.24999972,0,0,0.24999972,-9.8609007e-5,144.00005)" /><path
       inkscape:connector-curvature="0"
       style="display:inline;opacity:1;fill:#212121;fill-opacity:0.18823529;fill-rule:evenodd;stroke:none;stroke-width:0.1;stroke-linecap:butt;stroke-linejoin:miter;stroke-miterlimit:4;stroke-dasharray:none;stroke-dashoffset:0;stroke-opacity:1;filter:url(#filter18030);enable-background:new"
       d="m 32,171 0,1 c 0,6.648 5.352,12 12,12 l 104,0 c 6.648,0 12,-5.352 12,-12 l 0,-1 c 0,6.648 -5.352,12 -12,12 l -104,0 c -6.648,0 -12,-5.352 -12,-12 z"
       id="rect4929-5"
       transform="matrix(0.24999972,0,0,0.24999972,-9.8609007e-5,144.00005)" /><g
       style="display:inline;filter:url(#filter18116);enable-background:new"
       id="g17746"
       transform="matrix(0.24999972,0,0,0.24999972,-9.8609007e-5,144.00005)"><g
         id="g17736"><path
           style="opacity:1;fill:#795548;fill-opacity:1;fill-rule:evenodd;stroke:none;stroke-width:0.1;stroke-linecap:butt;stroke-linejoin:miter;stroke-miterlimit:4;stroke-dasharray:none;stroke-dashoffset:0;stroke-opacity:0.2"
           d="m 44,20 104,0 c 6.648,0 12,5.352 12,12 0,6.648 0,12 0,12 L 32,44 c 0,0 0,-5.352 0,-12 0,-6.648 5.352,-12 12,-12 z"
           id="rect17651"
           inkscape:connector-curvature="0"
           sodipodi:nodetypes="sssccss" /><path
           inkscape:connector-curvature="0"
           style="opacity:1;fill:#ffffff;fill-opacity:0.2;fill-rule:evenodd;stroke:none;stroke-width:0.1;stroke-linecap:butt;stroke-linejoin:miter;stroke-miterlimit:4;stroke-dasharray:none;stroke-dashoffset:0;stroke-opacity:0.2;enable-background:new"
           d="m 44,20 c -6.648,0 -12,5.352 -12,12 l 0,1 c 0,-6.648 5.352,-12 12,-12 l 104,0 c 6.648,0 12,5.352 12,12 l 0,-1 c 0,-6.648 -5.352,-12 -12,-12 L 44,20 Z"
           id="rect17651-2" /><path
           style="opacity:1;fill:#3e2723;fill-opacity:0.2;fill-rule:evenodd;stroke:none;stroke-width:0.1;stroke-linecap:butt;stroke-linejoin:miter;stroke-miterlimit:4;stroke-dasharray:none;stroke-dashoffset:0;stroke-opacity:0.2;enable-background:new"
           d="m 32,43 0,1 128,0 0,-1 -128,0 z"
           id="rect17651-25"
           inkscape:connector-curvature="0" /></g><g
         id="g17741"><path
           style="display:inline;opacity:1;fill:#8d6e63;fill-opacity:1;fill-rule:evenodd;stroke:none;stroke-width:0.1;stroke-linecap:butt;stroke-linejoin:miter;stroke-miterlimit:4;stroke-dasharray:none;stroke-dashoffset:0;stroke-opacity:1;enable-background:new"
           d="m 32.052995,44 -12,116.00751 c -0.683607,6.60861 5.352,11.99249 12,11.99249 L 160.053,172 c 6.648,0 12.68361,-5.38388 12,-11.99249 L 160.053,44 Z"
           id="rect4929-9"
           inkscape:connector-curvature="0"
           sodipodi:nodetypes="csssscc" /><path
           inkscape:connector-curvature="0"
           style="display:inline;opacity:1;fill:#3e2723;fill-opacity:0.2;fill-rule:evenodd;stroke:none;stroke-width:0.1;stroke-linecap:butt;stroke-linejoin:miter;stroke-miterlimit:4;stroke-dasharray:none;stroke-dashoffset:0;stroke-opacity:1;enable-background:new"
           d="M 20.029297,160.56641 C 19.733147,166.91507 25.594567,172 32.052734,172 l 127.999996,0 c 6.45817,0 12.31959,-5.08493 12.02344,-11.43359 C 171.7503,166.44016 166.16789,171 160.05273,171 l -127.999996,0 c -6.115157,0 -11.697568,-4.55984 -12.023437,-10.43359 z"
           id="rect4929-9-4" /><path
           style="display:inline;opacity:1;fill:#ffffff;fill-opacity:0.2;fill-rule:evenodd;stroke:none;stroke-width:0.1;stroke-linecap:butt;stroke-linejoin:miter;stroke-miterlimit:4;stroke-dasharray:none;stroke-dashoffset:0;stroke-opacity:1;enable-background:new"
           d="m 32.052734,44 -12,116.00781 c -0.05479,0.52969 -0.05183,1.04679 -0.02344,1.5586 0.0087,-0.18662 0.0039,-0.36989 0.02344,-0.5586 l 12,-116.00781 127.999996,0 12,116.00781 c 0.0195,0.18871 0.0147,0.37198 0.0234,0.5586 0.0284,-0.51181 0.0314,-1.02891 -0.0234,-1.5586 L 160.05273,44 32.052734,44 Z"
           id="rect4929-9-5"
           inkscape:connector-curvature="0" /></g></g></g><g
     inkscape:groupmode="layer"
     id="layer2"
     inkscape:label="Fg"
     transform="translate(0,-144)"><rect
       style="opacity:1;fill:#e0e0e0;fill-opacity:1;fill-rule:evenodd;stroke:none;stroke-width:0.1;stroke-linecap:butt;stroke-linejoin:miter;stroke-miterlimit:4;stroke-dasharray:none;stroke-dashoffset:0;stroke-opacity:0.2"
       id="rect17804"
       width="2"
       height="5"
       x="12.5"
       y="147"
       ry="1" /><rect
       style="opacity:1;fill:#e0e0e0;fill-opacity:1;fill-rule:evenodd;stroke:none;stroke-width:0.1;stroke-linecap:butt;stroke-linejoin:miter;stroke-miterlimit:4;stroke-dasharray:none;stroke-dashoffset:0;stroke-opacity:0.2;enable-background:new"
       id="rect17804-3"
       width="2"
       height="5"
       x="19.5"
       y="147"
       ry="1" /><rect
       style="opacity:1;fill:#e0e0e0;fill-opacity:1;fill-rule:evenodd;stroke:none;stroke-width:0.1;stroke-linecap:butt;stroke-linejoin:miter;stroke-miterlimit:4;stroke-dasharray:none;stroke-dashoffset:0;stroke-opacity:0.2;enable-background:new"
       id="rect17804-3-2"
       width="2"
       height="5"
       x="26.5"
       y="147"
       ry="1" /><rect
       style="opacity:1;fill:#e0e0e0;fill-opacity:1;fill-rule:evenodd;stroke:none;stroke-width:0.1;stroke-linecap:butt;stroke-linejoin:miter;stroke-miterlimit:4;stroke-dasharray:none;stroke-dashoffset:0;stroke-opacity:0.2;enable-background:new"
       id="rect17804-3-2-0"
       width="2"
       height="5"
       x="33.5"
       y="147"
       ry="1" /><path
       style="opacity:1;fill:#ffffff;fill-opacity:0.10196078;fill-rule:evenodd;stroke:none;stroke-width:0.1;stroke-linecap:butt;stroke-linejoin:miter;stroke-miterlimit:4;stroke-dasharray:none;stroke-dashoffset:0;stroke-opacity:0.2;enable-background:new"
       d="m 13.5,147 c -0.554,0 -1,0.446 -1,1 l 0,0.25 c 0,-0.554 0.446,-1 1,-1 0.554,0 1,0.446 1,1 l 0,-0.25 c 0,-0.554 -0.446,-1 -1,-1 z"
       id="rect17804-0"
       inkscape:connector-curvature="0" /><path
       style="opacity:1;fill:#ffffff;fill-opacity:0.10196078;fill-rule:evenodd;stroke:none;stroke-width:0.1;stroke-linecap:butt;stroke-linejoin:miter;stroke-miterlimit:4;stroke-dasharray:none;stroke-dashoffset:0;stroke-opacity:0.2;enable-background:new"
       d="m 20.5,147 c -0.554,0 -1,0.446 -1,1 l 0,0.25 c 0,-0.554 0.446,-1 1,-1 0.554,0 1,0.446 1,1 l 0,-0.25 c 0,-0.554 -0.446,-1 -1,-1 z"
       id="rect17804-3-4"
       inkscape:connector-curvature="0" /><path
       style="opacity:1;fill:#ffffff;fill-opacity:0.10196078;fill-rule:evenodd;stroke:none;stroke-width:0.1;stroke-linecap:butt;stroke-linejoin:miter;stroke-miterlimit:4;stroke-dasharray:none;stroke-dashoffset:0;stroke-opacity:0.2;enable-background:new"
       d="m 27.5,147 c -0.554,0 -1,0.446 -1,1 l 0,0.25 c 0,-0.554 0.446,-1 1,-1 0.554,0 1,0.446 1,1 l 0,-0.25 c 0,-0.554 -0.446,-1 -1,-1 z"
       id="rect17804-3-2-5"
       inkscape:connector-curvature="0" /><path
       style="opacity:1;fill:#ffffff;fill-opacity:0.10196078;fill-rule:evenodd;stroke:none;stroke-width:0.1;stroke-linecap:butt;stroke-linejoin:miter;stroke-miterlimit:4;stroke-dasharray:none;stroke-dashoffset:0;stroke-opacity:0.2;enable-background:new"
       d="m 34.5,147 c -0.554,0 -1,0.446 -1,1 l 0,0.25 c 0,-0.554 0.446,-1 1,-1 0.554,0 1,0.446 1,1 l 0,-0.25 c 0,-0.554 -0.446,-1 -1,-1 z"
       id="rect17804-3-2-0-4"
       inkscape:connector-curvature="0" /><path
       style="opacity:1;fill:#212121;fill-opacity:0.10196078;fill-rule:evenodd;stroke:none;stroke-width:0.1;stroke-linecap:butt;stroke-linejoin:miter;stroke-miterlimit:4;stroke-dasharray:none;stroke-dashoffset:0;stroke-opacity:0.2;enable-background:new"
       d="m 12.5,150.75 0,0.25 c 0,0.554 0.446,1 1,1 0.554,0 1,-0.446 1,-1 l 0,-0.25 c 0,0.554 -0.446,1 -1,1 -0.554,0 -1,-0.446 -1,-1 z"
       id="rect17804-8"
       inkscape:connector-curvature="0" /><path
       style="opacity:1;fill:#212121;fill-opacity:0.10196078;fill-rule:evenodd;stroke:none;stroke-width:0.1;stroke-linecap:butt;stroke-linejoin:miter;stroke-miterlimit:4;stroke-dasharray:none;stroke-dashoffset:0;stroke-opacity:0.2;enable-background:new"
       d="m 19.5,150.75 0,0.25 c 0,0.554 0.446,1 1,1 0.554,0 1,-0.446 1,-1 l 0,-0.25 c 0,0.554 -0.446,1 -1,1 -0.554,0 -1,-0.446 -1,-1 z"
       id="rect17804-3-8"
       inkscape:connector-curvature="0" /><path
       style="opacity:1;fill:#212121;fill-opacity:0.10196078;fill-rule:evenodd;stroke:none;stroke-width:0.1;stroke-linecap:butt;stroke-linejoin:miter;stroke-miterlimit:4;stroke-dasharray:none;stroke-dashoffset:0;stroke-opacity:0.2;enable-background:new"
       d="m 26.5,150.75 0,0.25 c 0,0.554 0.446,1 1,1 0.554,0 1,-0.446 1,-1 l 0,-0.25 c 0,0.554 -0.446,1 -1,1 -0.554,0 -1,-0.446 -1,-1 z"
       id="rect17804-3-2-7"
       inkscape:connector-curvature="0" /><path
       style="opacity:1;fill:#212121;fill-opacity:0.10196078;fill-rule:evenodd;stroke:none;stroke-width:0.1;stroke-linecap:butt;stroke-linejoin:miter;stroke-miterlimit:4;stroke-dasharray:none;stroke-dashoffset:0;stroke-opacity:0.2;enable-background:new"
       d="m 33.5,150.75 0,0.25 c 0,0.554 0.446,1 1,1 0.554,0 1,-0.446 1,-1 l 0,-0.25 c 0,0.554 -0.446,1 -1,1 -0.554,0 -1,-0.446 -1,-1 z"
       id="rect17804-3-2-0-7"
       inkscape:connector-curvature="0" /></g><g
     inkscape:groupmode="layer"
     id="layer3"
     inkscape:label="Color"
     style="display:inline"
     transform="translate(0,-144)"><path
       style="fill:#ffffff;fill-opacity:1;filter:url(#filter18391);enable-background:new"
       d="m 98.102457,84.768981 c -1.154,0 -2.30894,0.441752 -3.19141,1.324218 l -8.28125,8.28125 -4.93945,4.9375 -49.4961,49.498051 -0.45898,0.45898 0,0.0957 0,12.44727 0,4.42773 4.42969,0 12.44726,0 0.09375,0 0.45899,-0.45898 49.59179,-49.5918 5.562503,-5.5625 7.5625,-7.5625 c 1.76493,-1.76494 1.76493,-4.615927 0,-6.38086 L 101.29191,86.093199 c -0.88247,-0.882467 -2.035463,-1.324219 -3.189453,-1.324218 z"
       id="path4-0"
       inkscape:connector-curvature="0"
       transform="matrix(0.24999943,0,0,0.24999943,17.6912,130.79016)" /><g
       id="g18269"
       transform="matrix(0.1767763,0.1767763,-0.1767763,0.1767763,13.718839,120.61658)"
       style=""><path
         inkscape:connector-curvature="0"
         id="path4"
         d="m 191.99996,11.30436 c -10e-6,-2.495993 -2.016,-4.5119885 -4.51199,-4.5119905 l -14.97597,-2.1e-6 c -2.496,6.2e-6 -4.51199,2.0160006 -4.51199,4.5119936 l 0,11.711973 23.99995,-2e-6 0,-11.711972 z"
         style="fill:#f48fb1;fill-opacity:1;enable-background:new;" /><path
         sodipodi:nodetypes="ccccc"
         inkscape:connector-curvature="0"
         id="path18204"
         d="M 168,29.865234 168,100 l 24,0 0,-70.134766 z"
         style="display:inline;fill:#ffeb3b;fill-opacity:1;enable-background:new;" /><path
         id="path18202"
         d="m 192,100 a 4,4 0 0 1 -0.0664,0.71484 L 192,100.64844 192,100 Z"
         style="display:inline;fill:#635900;fill-opacity:1;enable-background:new;"
         inkscape:connector-curvature="0" /><path
         id="path18018-6"
         d="m 168,100 0,0.64844 0.0684,0.0684 A 4,4 0 0 1 168,100 Z"
         style="display:inline;fill:#635900;fill-opacity:1;enable-background:new;"
         inkscape:connector-curvature="0" /><rect
         y="30"
         x="184"
         height="70"
         width="8"
         id="rect18248"
         style="opacity:1;fill:#fdd835;fill-opacity:1;fill-rule:evenodd;stroke:none;stroke-width:0.1;stroke-linecap:butt;stroke-linejoin:miter;stroke-miterlimit:4;stroke-dasharray:none;stroke-dashoffset:0;stroke-opacity:0.2;" /><rect
         y="22"
         x="168"
         height="8"
         width="24"
         id="rect18020"
         style="opacity:1;fill:#b3b3b3;fill-opacity:1;fill-rule:evenodd;stroke:none;stroke-width:0.1;stroke-linecap:butt;stroke-linejoin:miter;stroke-miterlimit:4;stroke-dasharray:none;stroke-dashoffset:0;stroke-opacity:1;" /><rect
         y="30"
         x="168"
         height="70"
         width="8"
         id="rect18248-0"
         style="display:inline;opacity:1;fill:#ffee58;fill-opacity:1;fill-rule:evenodd;stroke:none;stroke-width:0.1;stroke-linecap:butt;stroke-linejoin:miter;stroke-miterlimit:4;stroke-dasharray:none;stroke-dashoffset:0;stroke-opacity:0.2;enable-background:new;" /><g
         id="g18250"
         style=""><path
           style="fill:#ffcc80;fill-opacity:1;enable-background:new;"
           mask="none"
           clip-path="none"
           d="m 172,96 a 4,4 0 0 0 -4,4 l 0,0.64844 12,12 12,-12 L 192,100 a 4,4 0 0 0 -4,-4 4,4 0 0 0 -4,4 4,4 0 0 0 -4,-4 4,4 0 0 0 -4,4 4,4 0 0 0 -4,-4 z"
           id="path18018"
           inkscape:connector-curvature="0" /><path
           style="opacity:1;fill:#424242;fill-opacity:1;fill-rule:evenodd;stroke:none;stroke-width:0.1;stroke-linecap:butt;stroke-linejoin:miter;stroke-miterlimit:4;stroke-dasharray:none;stroke-dashoffset:0;stroke-opacity:0.2;"
           mask="none"
           clip-path="none"
           d="m 180,108 a 4,4 0 0 0 -3.13086,1.51758 l 3.13086,3.13086 3.13281,-3.13282 a 4,4 0 0 0 0,-0.002 A 4,4 0 0 0 180,108 Z"
           id="path18206"
           inkscape:connector-curvature="0" /></g></g></g><g
     inkscape:groupmode="layer"
     id="layer4"
     inkscape:label="Finish"
     style="display:inline"
     transform="translate(0,-144)"
     sodipodi:insensitive="true"><path
       inkscape:connector-curvature="0"
       style="opacity:1;fill:url(#radialGradient18533);fill-opacity:1;fill-rule:evenodd;stroke:none;stroke-width:0.1;stroke-linecap:butt;stroke-linejoin:miter;stroke-miterlimit:4;stroke-dasharray:none;stroke-dashoffset:0;stroke-opacity:0.2;filter:url(#filter18116-9-8);enable-background:new"
       d="m 44.000026,20 c -6.648,0 -12,5.352 -12,12 l 0,1 0,10 0,1 0.05273,0 -12,116.00781 c -0.03286,0.31768 -0.04078,0.62926 -0.03906,0.93946 -0.0017,0.20691 0.0044,0.41136 0.01563,0.61523 3.6e-5,6.5e-4 -3.6e-5,0.001 0,0.002 -3e-5,6.5e-4 3e-5,10e-4 0,0.002 0.02478,0.44662 0.08237,0.88449 0.166015,1.31445 0.07259,0.37313 0.165321,0.73908 0.279297,1.09766 0.11419,0.35924 0.2474,0.70997 0.400391,1.05273 0.303527,0.68003 0.677065,1.3255 1.117188,1.92969 0.01178,0.0162 0.02328,0.0327 0.03516,0.0488 0.211124,0.28655 0.433513,0.56324 0.671875,0.83007 0.01621,0.0182 0.03445,0.0346 0.05078,0.0527 0.234526,0.25924 0.478153,0.51116 0.736328,0.75 0.0402,0.0373 0.08425,0.0706 0.125,0.10742 0.23487,0.21141 0.474557,0.41766 0.726563,0.61133 0.08815,0.068 0.181356,0.12961 0.271484,0.19531 0.219831,0.15973 0.439065,0.31901 0.669922,0.46484 0.116881,0.0741 0.239838,0.13863 0.359375,0.20899 0.213458,0.12526 0.425166,0.25212 0.646484,0.36523 0.146358,0.075 0.299662,0.13754 0.449219,0.20703 0.207726,0.0963 0.413573,0.1959 0.626953,0.28125 0.159466,0.064 0.323952,0.11619 0.486328,0.17383 0.209643,0.0743 0.416846,0.15333 0.63086,0.2168 0.211543,0.0629 0.429163,0.10817 0.644531,0.16016 0.170081,0.041 0.337591,0.091 0.509765,0.125 0.291129,0.0576 0.58654,0.0958 0.882813,0.13281 0.104823,0.0131 0.207139,0.0345 0.3125,0.0449 0.404756,0.0402 0.813585,0.0625 1.224609,0.0625 l 128.000004,0 c 0.41103,0 0.81986,-0.0223 1.22461,-0.0625 0.11174,-0.0111 0.22091,-0.0328 0.33204,-0.0469 0.28824,-0.0365 0.576,-0.0729 0.85937,-0.1289 0.18889,-0.0372 0.37223,-0.0911 0.55859,-0.13672 0.20025,-0.0491 0.4027,-0.0919 0.59961,-0.15039 0.21405,-0.0635 0.42119,-0.14253 0.63086,-0.2168 0.16238,-0.0576 0.32686,-0.10988 0.48633,-0.17383 0.21338,-0.0854 0.41923,-0.18497 0.62695,-0.28125 0.14956,-0.0695 0.30286,-0.13202 0.44922,-0.20703 0.22132,-0.11311 0.43303,-0.23997 0.64649,-0.36523 0.11953,-0.0704 0.24249,-0.13492 0.35937,-0.20899 0.2421,-0.15293 0.47318,-0.32007 0.70313,-0.48828 0.0756,-0.0555 0.1543,-0.10696 0.22851,-0.16406 0.26241,-0.2012 0.51201,-0.41437 0.75586,-0.63476 0.0338,-0.0307 0.0701,-0.0588 0.10352,-0.0898 0.25899,-0.23947 0.50307,-0.49196 0.73828,-0.75195 0.0123,-0.0136 0.0268,-0.0254 0.0391,-0.0391 0.004,-0.004 0.008,-0.009 0.0117,-0.0137 0.23836,-0.26683 0.46075,-0.54352 0.67187,-0.83007 0.009,-0.012 0.0186,-0.0232 0.0273,-0.0352 0.003,-0.004 0.005,-0.009 0.008,-0.0137 0.44012,-0.60419 0.81366,-1.24966 1.11719,-1.92969 0.15299,-0.34276 0.2862,-0.69349 0.40039,-1.05273 0.11398,-0.35858 0.20671,-0.72453 0.2793,-1.09766 0.0836,-0.42996 0.14123,-0.86783 0.16601,-1.31445 4e-5,-6.5e-4 -3e-5,-10e-4 0,-0.002 -3e-5,-6.5e-4 3e-5,-0.001 0,-0.002 0.0112,-0.20387 0.0173,-0.40832 0.0156,-0.61523 0.002,-0.3102 -0.006,-0.62178 -0.0391,-0.93946 L 160.05276,44 l -0.0527,0 0,-1 0,-10 0,-1 c 0,-6.648 -5.352,-12 -12,-12 L 44.000056,20 Z"
       id="rect17651-0"
       transform="matrix(0.25000058,0,0,0.24999993,1.1477001e-4,144.00001)" /></g></svg>