<?xml version="1.0" encoding="UTF-8" standalone="no"?>
<!-- Created with Inkscape (http://www.inkscape.org/) -->

<svg
   xmlns:osb="http://www.openswatchbook.org/uri/2009/osb"
   xmlns:dc="http://purl.org/dc/elements/1.1/"
   xmlns:cc="http://creativecommons.org/ns#"
   xmlns:rdf="http://www.w3.org/1999/02/22-rdf-syntax-ns#"
   xmlns:svg="http://www.w3.org/2000/svg"
   xmlns="http://www.w3.org/2000/svg"
   xmlns:xlink="http://www.w3.org/1999/xlink"
   xmlns:sodipodi="http://sodipodi.sourceforge.net/DTD/sodipodi-0.dtd"
   xmlns:inkscape="http://www.inkscape.org/namespaces/inkscape"
   id="svg2"
   version="1.1"
   inkscape:version="0.91 r"
   xml:space="preserve"
   width="192"
   height="192"
   viewBox="0 0 192 192"
   sodipodi:docname="media-optical.svg"
   style="enable-background:new"><metadata
     id="metadata8"><rdf:RDF><cc:Work
         rdf:about=""><dc:format>image/svg+xml</dc:format><dc:type
           rdf:resource="http://purl.org/dc/dcmitype/StillImage" /><dc:title></dc:title><cc:license
           rdf:resource="" /></cc:Work></rdf:RDF></metadata><defs
     id="defs6"><linearGradient
       inkscape:collect="always"
       id="linearGradient5811"><stop
         style="stop-color:#ffffff;stop-opacity:0.1"
         offset="0"
         id="stop5813" /><stop
         style="stop-color:#e0e0e0;stop-opacity:0;"
         offset="1"
         id="stop5815" /></linearGradient><linearGradient
       id="linearGradient6179"
       osb:paint="solid"><stop
         style="stop-color:#000000;stop-opacity:1;"
         offset="0"
         id="stop6181" /></linearGradient><clipPath
       clipPathUnits="userSpaceOnUse"
       id="clipPath18"><path
         d="M 0,512 512,512 512,0 0,0 0,512 Z"
         id="path20"
         inkscape:connector-curvature="0" /></clipPath><filter
       style="color-interpolation-filters:sRGB"
       inkscape:label="Drop Shadow"
       id="filter4889"><feFlood
         flood-opacity="0.26000000000000001"
         flood-color="rgb(0,0,0)"
         result="flood"
         id="feFlood4891" /><feComposite
         in="flood"
         in2="SourceGraphic"
         operator="in"
         result="composite1"
         id="feComposite4893" /><feGaussianBlur
         in="composite1"
         stdDeviation="0.40000000000000002"
         result="blur"
         id="feGaussianBlur4895" /><feOffset
         dx="0"
         dy="0.80000000000000004"
         result="offset"
         id="feOffset4897" /><feComposite
         in2="offset"
         operator="over"
         result="composite2"
         id="feComposite4899"
         in="SourceGraphic" /></filter><filter
       style="color-interpolation-filters:sRGB"
       inkscape:label="Drop Shadow"
       id="filter4683"><feFlood
         flood-opacity="0.2"
         flood-color="rgb(0,0,0)"
         result="flood"
         id="feFlood4685" /><feComposite
         in="flood"
         in2="SourceGraphic"
         operator="in"
         result="composite1"
         id="feComposite4687" /><feGaussianBlur
         in="composite1"
         stdDeviation="4"
         result="blur"
         id="feGaussianBlur4689" /><feOffset
         dx="0"
         dy="4"
         result="offset"
         id="feOffset4691" /><feComposite
         in="SourceGraphic"
         in2="offset"
         operator="over"
         result="composite2"
         id="feComposite4693" /></filter><filter
       style="color-interpolation-filters:sRGB"
       inkscape:label="Drop Shadow"
       id="filter4683-6"><feFlood
         flood-opacity="0.2"
         flood-color="rgb(0,0,0)"
         result="flood"
         id="feFlood4685-4" /><feComposite
         in="flood"
         in2="SourceGraphic"
         operator="in"
         result="composite1"
         id="feComposite4687-7" /><feGaussianBlur
         in="composite1"
         stdDeviation="4"
         result="blur"
         id="feGaussianBlur4689-4" /><feOffset
         dx="0"
         dy="4"
         result="offset"
         id="feOffset4691-6" /><feComposite
         in="SourceGraphic"
         in2="offset"
         operator="over"
         result="composite2"
         id="feComposite4693-0" /></filter><filter
       style="color-interpolation-filters:sRGB"
       inkscape:label="Drop Shadow"
       id="filter5680"><feFlood
         flood-opacity="0.2"
         flood-color="rgb(0,0,0)"
         result="flood"
         id="feFlood5682" /><feComposite
         in="flood"
         in2="SourceGraphic"
         operator="in"
         result="composite1"
         id="feComposite5684" /><feGaussianBlur
         in="composite1"
         stdDeviation="4"
         result="blur"
         id="feGaussianBlur5686" /><feOffset
         dx="0"
         dy="4"
         result="offset"
         id="feOffset5688" /><feComposite
         in="SourceGraphic"
         in2="offset"
         operator="over"
         result="composite2"
         id="feComposite5690" /></filter><filter
       style="color-interpolation-filters:sRGB"
       inkscape:label="Drop Shadow"
       id="filter4683-3"><feFlood
         flood-opacity="0.2"
         flood-color="rgb(0,0,0)"
         result="flood"
         id="feFlood4685-5" /><feComposite
         in="flood"
         in2="SourceGraphic"
         operator="in"
         result="composite1"
         id="feComposite4687-4" /><feGaussianBlur
         in="composite1"
         stdDeviation="4"
         result="blur"
         id="feGaussianBlur4689-7" /><feOffset
         dx="0"
         dy="4"
         result="offset"
         id="feOffset4691-4" /><feComposite
         in="SourceGraphic"
         in2="offset"
         operator="over"
         result="composite2"
         id="feComposite4693-1" /></filter><filter
       style="color-interpolation-filters:sRGB"
       inkscape:label="Drop Shadow"
       id="filter5680-7"><feFlood
         flood-opacity="0.2"
         flood-color="rgb(0,0,0)"
         result="flood"
         id="feFlood5682-7" /><feComposite
         in="flood"
         in2="SourceGraphic"
         operator="in"
         result="composite1"
         id="feComposite5684-9" /><feGaussianBlur
         in="composite1"
         stdDeviation="4"
         result="blur"
         id="feGaussianBlur5686-9" /><feOffset
         dx="0"
         dy="4"
         result="offset"
         id="feOffset5688-9" /><feComposite
         in="SourceGraphic"
         in2="offset"
         operator="over"
         result="composite2"
         id="feComposite5690-9" /></filter><radialGradient
       inkscape:collect="always"
       xlink:href="#linearGradient5811"
       id="radialGradient5817"
       cx="0.18703108"
       cy="0.18703113"
       fx="0.18703108"
       fy="0.18703113"
       r="88"
       gradientUnits="userSpaceOnUse"
       gradientTransform="matrix(2.0869726,2.0869726,-0.7071068,0.7071068,-0.0710467,-0.33556009)" /></defs><sodipodi:namedview
     pagecolor="#ffffff"
     bordercolor="#666666"
     borderopacity="1"
     objecttolerance="10"
     gridtolerance="10"
     guidetolerance="10"
     inkscape:pageopacity="0"
     inkscape:pageshadow="2"
     inkscape:window-width="1360"
     inkscape:window-height="709"
     id="namedview4"
     showgrid="false"
     inkscape:zoom="1.4142136"
     inkscape:cx="74.399984"
     inkscape:cy="95.347943"
     inkscape:window-x="0"
     inkscape:window-y="0"
     inkscape:window-maximized="1"
     inkscape:current-layer="layer6"
     borderlayer="true"
     inkscape:showpageshadow="true"
     showguides="false"
     inkscape:guide-bbox="true"
     showborder="true"><sodipodi:guide
       position="8,96"
       orientation="1,0"
       id="guide4338"
       inkscape:label=""
       inkscape:color="rgb(0,0,255)" /><sodipodi:guide
       position="136,96"
       orientation="1,0"
       id="guide4340"
       inkscape:label=""
       inkscape:color="rgb(0,0,255)" /><sodipodi:guide
       position="96,8"
       orientation="0,1"
       id="guide4342"
       inkscape:label=""
       inkscape:color="rgb(0,0,255)" /><sodipodi:guide
       position="96,160"
       orientation="0,1"
       id="guide4344"
       inkscape:label=""
       inkscape:color="rgb(0,0,255)" /><sodipodi:guide
       position="96,96"
       orientation="-0.70710678,0.70710678"
       id="guide4346"
       inkscape:label=""
       inkscape:color="rgb(0,0,255)" /><sodipodi:guide
       position="96,96"
       orientation="0.70710678,0.70710678"
       id="guide4348"
       inkscape:label=""
       inkscape:color="rgb(0,0,255)" /><sodipodi:guide
       position="20,96"
       orientation="1,0"
       id="guide4350"
       inkscape:label=""
       inkscape:color="rgb(0,0,255)" /><sodipodi:guide
       position="32,96"
       orientation="1,0"
       id="guide4352"
       inkscape:label=""
       inkscape:color="rgb(0,0,255)" /><sodipodi:guide
       position="96,172"
       orientation="0,1"
       id="guide4354"
       inkscape:label=""
       inkscape:color="rgb(0,0,255)" /><sodipodi:guide
       position="96,96"
       orientation="0,1"
       id="guide4356"
       inkscape:label=""
       inkscape:color="rgb(0,0,255)" /><sodipodi:guide
       position="96,96"
       orientation="1,0"
       id="guide4358"
       inkscape:label=""
       inkscape:color="rgb(0,0,255)" /><sodipodi:guide
       position="96,20"
       orientation="0,1"
       id="guide4360"
       inkscape:label=""
       inkscape:color="rgb(0,0,255)" /><sodipodi:guide
       position="96,32"
       orientation="0,1"
       id="guide4362"
       inkscape:label=""
       inkscape:color="rgb(0,0,255)" /><sodipodi:guide
       position="96,184"
       orientation="0,1"
       id="guide4364"
       inkscape:label=""
       inkscape:color="rgb(0,0,255)" /><sodipodi:guide
       position="160,96"
       orientation="1,0"
       id="guide4366"
       inkscape:label=""
       inkscape:color="rgb(0,0,255)" /><sodipodi:guide
       position="184,96"
       orientation="1,0"
       id="guide4368"
       inkscape:label=""
       inkscape:color="rgb(0,0,255)" /><sodipodi:guide
       position="96,136"
       orientation="0,1"
       id="guide4370"
       inkscape:label=""
       inkscape:color="rgb(0,0,255)" /><sodipodi:guide
       position="96,56"
       orientation="0,1"
       id="guide4372"
       inkscape:label=""
       inkscape:color="rgb(0,0,255)" /><sodipodi:guide
       position="56,96"
       orientation="1,0"
       id="guide4374"
       inkscape:label=""
       inkscape:color="rgb(0,0,255)" /><sodipodi:guide
       position="172,96"
       orientation="1,0"
       id="guide4376"
       inkscape:label=""
       inkscape:color="rgb(0,0,255)" /></sodipodi:namedview><g
     inkscape:groupmode="layer"
     id="layer6"
     inkscape:label="Base"
     style="display:inline"><path
       style="opacity:1;fill:#e0e0e0;fill-opacity:1;fill-rule:evenodd;stroke:none;stroke-width:4;stroke-linecap:butt;stroke-linejoin:miter;stroke-miterlimit:4;stroke-dasharray:none;stroke-dashoffset:0;stroke-opacity:1;filter:url(#filter4683)"
       d="M 95.999989,8.0000015 A 87.999995,87.999995 0 0 0 7.9999985,95.999996 87.999995,87.999995 0 0 0 95.999989,183.99999 87.999995,87.999995 0 0 0 183.99999,95.999996 87.999995,87.999995 0 0 0 95.999989,8.0000015 Z m 0,67.9999955 A 19.999999,19.999999 0 0 1 115.99999,95.999996 19.999999,19.999999 0 0 1 95.999989,115.99999 19.999999,19.999999 0 0 1 75.999994,95.999996 19.999999,19.999999 0 0 1 95.999989,75.999997 Z"
       id="path4468"
       inkscape:connector-curvature="0" /><path
       style="opacity:1;fill:#eeeeee;fill-opacity:1;fill-rule:evenodd;stroke:none;stroke-width:4;stroke-linecap:butt;stroke-linejoin:miter;stroke-miterlimit:4;stroke-dasharray:none;stroke-dashoffset:0;stroke-opacity:1;enable-background:new"
       d="m 76.689445,101.17384 -65.6914,17.60156 a 87.999994,87.999994 0 0 0 62.226557,62.22656 L 90.830069,115.29688 A 19.999998,19.999998 0 0 1 76.689445,101.17384 Z"
       id="path4468-2"
       inkscape:connector-curvature="0" /><path
       style="display:inline;opacity:1;fill:#eeeeee;fill-opacity:1;fill-rule:evenodd;stroke:none;stroke-width:4;stroke-linecap:butt;stroke-linejoin:miter;stroke-miterlimit:4;stroke-dasharray:none;stroke-dashoffset:0;stroke-opacity:1;enable-background:new"
       d="M 118.77538,10.998042 101.16991,76.70312 a 19.999998,19.999998 0 0 1 14.14063,14.12304 L 181.00193,73.2246 A 87.999994,87.999994 0 0 0 118.77538,10.998042 Z"
       id="path4468-2-8"
       inkscape:connector-curvature="0" /><path
       style="display:inline;opacity:0.4;fill:#ffffff;fill-opacity:1;fill-rule:evenodd;stroke:none;stroke-width:4;stroke-linecap:butt;stroke-linejoin:miter;stroke-miterlimit:4;stroke-dasharray:none;stroke-dashoffset:0;stroke-opacity:1;enable-background:new"
       d="M 95.999989,8.0000018 A 87.999994,87.999994 0 0 0 7.9999985,96 87.999994,87.999994 0 0 0 8.0214785,96.58592 87.999994,87.999994 0 0 1 95.999989,9.0000018 87.999994,87.999994 0 0 1 183.9785,96.41408 87.999994,87.999994 0 0 0 184.0001,96 87.999994,87.999994 0 0 0 96.000109,8.0000018 Z"
       id="path4468-3"
       inkscape:connector-curvature="0" /><path
       style="display:inline;opacity:0.1;fill:#212121;fill-opacity:1;fill-rule:evenodd;stroke:none;stroke-width:4;stroke-linecap:butt;stroke-linejoin:miter;stroke-miterlimit:4;stroke-dasharray:none;stroke-dashoffset:0;stroke-opacity:1;enable-background:new"
       d="M 183.9785,95.41408 A 87.999994,87.999994 0 0 1 95.999989,183 87.999994,87.999994 0 0 1 8.0214835,95.58592 87.999994,87.999994 0 0 0 8.0000035,96 87.999994,87.999994 0 0 0 95.999989,184 87.999994,87.999994 0 0 0 183.99999,96 a 87.999994,87.999994 0 0 0 -0.0216,-0.58592 z"
       id="path4468-23"
       inkscape:connector-curvature="0" /><path
       style="opacity:1;fill:#bdbdbd;fill-opacity:1;fill-rule:evenodd;stroke:none;stroke-width:4;stroke-linecap:butt;stroke-linejoin:miter;stroke-miterlimit:4;stroke-dasharray:none;stroke-dashoffset:0;stroke-opacity:1"
       d="M 95.999989,56.000001 A 39.999997,39.999997 0 0 0 55.999994,96 39.999997,39.999997 0 0 0 95.999989,136 39.999997,39.999997 0 0 0 135.99999,96 39.999997,39.999997 0 0 0 95.999989,56.000001 Z m 0,19.999999 a 19.999998,19.999998 0 0 1 20.000001,20 19.999998,19.999998 0 0 1 -20.000001,20 19.999998,19.999998 0 0 1 -20,-20 19.999998,19.999998 0 0 1 20,-20 z"
       id="path4602"
       inkscape:connector-curvature="0" /><path
       style="display:inline;opacity:0.2;fill:#ffffff;fill-opacity:1;fill-rule:evenodd;stroke:none;stroke-width:4;stroke-linecap:butt;stroke-linejoin:miter;stroke-miterlimit:4;stroke-dasharray:none;stroke-dashoffset:0;stroke-opacity:1;enable-background:new"
       d="M 115.97851,96.41796 C 115.75123,107.29176 106.87614,115.99068 95.999989,116 85.185997,115.992 76.336177,107.39144 76.021473,96.58204 c -0.0088,0.1392 -0.0156,0.2784 -0.0216,0.41796 0,11.04568 8.954308,20 19.999996,20 11.045701,0 20.000001,-8.95432 20.000001,-20 -0.004,-0.194 -0.0116,-0.388 -0.0216,-0.58204 z"
       id="path4602-6"
       inkscape:connector-curvature="0"
       sodipodi:nodetypes="ccccscc" /><path
       style="display:inline;opacity:0.2;fill:#212121;fill-opacity:1;fill-rule:evenodd;stroke:none;stroke-width:4;stroke-linecap:butt;stroke-linejoin:miter;stroke-miterlimit:4;stroke-dasharray:none;stroke-dashoffset:0;stroke-opacity:1;enable-background:new"
       d="m 95.999989,75 c -11.045692,0 -20,8.95432 -20,20 0.0044,0.194 0.0116,0.388 0.0216,0.58204 0.22728,-10.8738 9.102372,-19.57272 19.97852,-19.58204 10.813991,0.008 19.663821,8.60856 19.978521,19.41796 0.009,-0.1392 0.0156,-0.2784 0.0216,-0.41796 0,-11.04568 -8.95431,-20 -20.000001,-20 z"
       id="path4602-4"
       inkscape:connector-curvature="0"
       sodipodi:nodetypes="scccccs" /></g><g
     inkscape:groupmode="layer"
     id="layer7"
     inkscape:label="Finish"
     style="display:inline"
     sodipodi:insensitive="true"><path
       style="display:inline;opacity:1;fill:url(#radialGradient5817);fill-opacity:1;fill-rule:evenodd;stroke:none;stroke-width:4;stroke-linecap:butt;stroke-linejoin:miter;stroke-miterlimit:4;stroke-dasharray:none;stroke-dashoffset:0;stroke-opacity:1;enable-background:new"
       d="m 96,8 a 88,88 0 0 0 -88,88 88,88 0 0 0 88,88 88,88 0 0 0 26.00781,-3.92968 C 127.83037,182.6472 135.12411,184 144,184 c 27.62584,0 40,-13.0396 40,-35.64844 0,-9.05984 -1.99744,-16.89484 -4.89648,-23.7246 A 88,88 0 0 0 184,96 88,88 0 0 0 96,8 Z m 0,68 A 20,20 0 0 1 116,96 20,20 0 0 1 96,116 20,20 0 0 1 76,96 20,20 0 0 1 96,76 Z"
       id="path4468-4"
       inkscape:connector-curvature="0" /></g></svg>